<svg width="162" height="11" viewBox="0 0 162 11" fill="none" xmlns="http://www.w3.org/2000/svg">
<path d="M1.126 10L0.944 9.118L1.714 8.866L4.444 0.325999H5.914L8.658 8.866L9.316 9.118L9.162 10H5.984V9.16L7.118 8.866L6.502 6.794H3.576L2.946 8.908L4.178 9.146V10H1.126ZM3.926 5.604H6.04L5.032 1.866L3.926 5.604ZM10.1095 10L9.99752 9.006L10.8795 8.824V1.474L10.0115 1.39V0.325999H12.9655C13.7868 0.325999 14.4868 0.447333 15.0655 0.69C15.6442 0.923333 16.0828 1.26867 16.3815 1.726C16.6895 2.18333 16.8435 2.734 16.8435 3.378C16.8435 4.09667 16.6568 4.68933 16.2835 5.156C15.9102 5.61333 15.4202 5.954 14.8135 6.178L16.1435 8.852L17.0395 9.02V10H15.0095L13.4415 6.5C13.2735 6.50933 13.1008 6.51867 12.9235 6.528C12.7462 6.53733 12.5408 6.542 12.3075 6.542V8.838L13.2035 9.02V10H10.1095ZM12.3075 5.31H12.9095C13.4228 5.31 13.8615 5.24467 14.2255 5.114C14.5895 4.974 14.8695 4.764 15.0655 4.484C15.2708 4.19467 15.3735 3.83533 15.3735 3.406C15.3735 2.99533 15.2848 2.65467 15.1075 2.384C14.9302 2.104 14.6548 1.89867 14.2815 1.768C13.9175 1.628 13.4508 1.558 12.8815 1.558H12.3075V5.31ZM19.3366 10L19.2666 9.062L20.8626 8.782V1.544H19.1126L18.5386 2.93H17.6706L17.9646 0.325999H25.1326L25.4406 2.916H24.5866L23.9986 1.544H22.2626V8.782L23.8726 9.062L23.8026 10H19.3366ZM28.9547 10.056C28.4787 10.056 28.0121 10.0047 27.5547 9.902C27.1067 9.79933 26.7007 9.66867 26.3367 9.51L26.4067 7.06L27.4147 7.116L27.6527 8.586C27.8021 8.642 27.9887 8.698 28.2127 8.754C28.4367 8.81 28.6701 8.838 28.9127 8.838C29.2207 8.838 29.5101 8.79133 29.7807 8.698C30.0607 8.59533 30.2847 8.44133 30.4527 8.236C30.6301 8.03067 30.7187 7.76933 30.7187 7.452C30.7187 7.2 30.6674 6.98533 30.5647 6.808C30.4621 6.63067 30.3034 6.46267 30.0887 6.304C29.8741 6.14533 29.5847 5.982 29.2207 5.814C28.8567 5.63667 28.5021 5.464 28.1567 5.296C27.8114 5.128 27.4987 4.93667 27.2187 4.722C26.9481 4.50733 26.7287 4.25067 26.5607 3.952C26.4021 3.644 26.3227 3.27067 26.3227 2.832C26.3227 2.31867 26.4581 1.87533 26.7287 1.502C27.0087 1.11933 27.3821 0.825333 27.8487 0.62C28.3247 0.414666 28.8381 0.312 29.3887 0.312C29.8274 0.312 30.2521 0.354 30.6627 0.438C31.0734 0.512666 31.4561 0.610666 31.8107 0.731999L32.0067 3.154H31.0267L30.3827 1.67C30.2334 1.62333 30.0701 1.59067 29.8927 1.572C29.7154 1.544 29.5381 1.53 29.3607 1.53C29.0621 1.53 28.7914 1.58133 28.5487 1.684C28.3154 1.77733 28.1287 1.91733 27.9887 2.104C27.8581 2.28133 27.7927 2.49133 27.7927 2.734C27.7927 2.97667 27.8581 3.18667 27.9887 3.364C28.1194 3.54133 28.2874 3.69533 28.4927 3.826C28.7074 3.95667 28.9407 4.078 29.1927 4.19C29.4447 4.29267 29.6874 4.4 29.9207 4.512C30.4807 4.77333 30.9241 5.044 31.2507 5.324C31.5867 5.59467 31.8294 5.88867 31.9787 6.206C32.1281 6.52333 32.2027 6.878 32.2027 7.27C32.2027 7.746 32.1094 8.16133 31.9227 8.516C31.7454 8.86133 31.5027 9.15067 31.1947 9.384C30.8867 9.608 30.5367 9.776 30.1447 9.888C29.7527 10 29.3561 10.056 28.9547 10.056ZM36.2627 10L36.0807 9.118L36.8507 8.866L39.5807 0.325999H41.0507L43.7947 8.866L44.4527 9.118L44.2987 10H41.1207V9.16L42.2547 8.866L41.6387 6.794H38.7127L38.0827 8.908L39.3147 9.146V10H36.2627ZM39.0627 5.604H41.1767L40.1687 1.866L39.0627 5.604ZM45.2882 10L45.1202 8.992L46.0162 8.81V1.488L45.1622 1.404V0.325999H48.1442L51.6162 8.796V1.488L50.7622 1.362V0.325999H53.5202L53.7022 1.376L52.8062 1.544V10H50.6222L47.1922 1.684V8.796L48.0182 8.978L48.0042 10H45.2882ZM55.0226 10L54.8826 8.978L55.7366 8.796V1.46L54.8966 1.362V0.325999H57.1506C58.2053 0.325999 59.1246 0.503333 59.9086 0.857999C60.7019 1.20333 61.3179 1.726 61.7566 2.426C62.1953 3.11667 62.4146 3.99867 62.4146 5.072C62.4146 6.14533 62.2233 7.05067 61.8406 7.788C61.4579 8.516 60.9026 9.06667 60.1746 9.44C59.4559 9.81333 58.5833 10 57.5566 10H55.0226ZM57.5846 8.796C58.2006 8.796 58.7186 8.70267 59.1386 8.516C59.5679 8.32933 59.9133 8.068 60.1746 7.732C60.4359 7.396 60.6273 7.004 60.7486 6.556C60.8699 6.108 60.9306 5.62267 60.9306 5.1C60.9306 4.36267 60.7906 3.728 60.5106 3.196C60.2399 2.664 59.8386 2.258 59.3066 1.978C58.7746 1.698 58.1306 1.55333 57.3746 1.544H57.1506V8.782L57.5846 8.796ZM71.4629 10.056C70.8002 10.056 70.1842 9.94867 69.6149 9.734C69.0455 9.51 68.5462 9.188 68.1169 8.768C67.6875 8.348 67.3562 7.844 67.1229 7.256C66.8895 6.65867 66.7729 5.98667 66.7729 5.24C66.7729 4.49333 66.8942 3.82133 67.1369 3.224C67.3795 2.62667 67.7155 2.11333 68.1449 1.684C68.5742 1.24533 69.0689 0.909333 69.6289 0.676C70.1889 0.442666 70.7862 0.325999 71.4209 0.325999C71.8875 0.325999 72.2889 0.358666 72.6249 0.424C72.9702 0.48 73.2409 0.535999 73.4369 0.591999L73.7029 3.154H72.7369L72.1349 1.6C72.0695 1.59067 71.9949 1.58133 71.9109 1.572C71.8362 1.55333 71.7009 1.544 71.5049 1.544C70.8702 1.544 70.3055 1.70267 69.8109 2.02C69.3255 2.33733 68.9429 2.76667 68.6629 3.308C68.3922 3.84 68.2475 4.44667 68.2289 5.128C68.2382 5.828 68.3735 6.458 68.6349 7.018C68.8962 7.56867 69.2695 8.012 69.7549 8.348C70.2402 8.67467 70.8189 8.838 71.4909 8.838C71.8455 8.838 72.2002 8.782 72.5549 8.67C72.9095 8.54867 73.2129 8.38067 73.4649 8.166L73.9269 9.23C73.7682 9.37933 73.5535 9.51933 73.2829 9.65C73.0215 9.77133 72.7322 9.86933 72.4149 9.944C72.0975 10.0187 71.7802 10.056 71.4629 10.056ZM75.0646 10L74.9526 9.006L75.8346 8.824V1.474L74.9666 1.39V0.325999H77.9206C78.7419 0.325999 79.4419 0.447333 80.0206 0.69C80.5993 0.923333 81.0379 1.26867 81.3366 1.726C81.6446 2.18333 81.7986 2.734 81.7986 3.378C81.7986 4.09667 81.6119 4.68933 81.2386 5.156C80.8653 5.61333 80.3753 5.954 79.7686 6.178L81.0986 8.852L81.9946 9.02V10H79.9646L78.3966 6.5C78.2286 6.50933 78.0559 6.51867 77.8786 6.528C77.7013 6.53733 77.4959 6.542 77.2626 6.542V8.838L78.1586 9.02V10H75.0646ZM77.2626 5.31H77.8646C78.3779 5.31 78.8166 5.24467 79.1806 5.114C79.5446 4.974 79.8246 4.764 80.0206 4.484C80.2259 4.19467 80.3286 3.83533 80.3286 3.406C80.3286 2.99533 80.2399 2.65467 80.0626 2.384C79.8853 2.104 79.6099 1.89867 79.2366 1.768C78.8726 1.628 78.4059 1.558 77.8366 1.558H77.2626V5.31ZM82.5557 10L82.3737 9.118L83.1437 8.866L85.8737 0.325999H87.3437L90.0877 8.866L90.7457 9.118L90.5917 10H87.4137V9.16L88.5477 8.866L87.9317 6.794H85.0057L84.3757 8.908L85.6077 9.146V10H82.5557ZM85.3557 5.604H87.4697L86.4617 1.866L85.3557 5.604ZM91.5812 10L91.4412 8.978L92.2952 8.81V1.46L91.4552 1.376V0.325999H97.4472L97.7272 2.972H96.8452L96.2992 1.544H93.7092V4.498H95.9072V5.688H93.7092V8.754L95.9772 9.076L95.8932 10H91.5812ZM99.7956 10L99.7256 9.062L101.322 8.782V1.544H99.5716L98.9976 2.93H98.1296L98.4236 0.325999H105.592L105.9 2.916H105.046L104.458 1.544H102.722V8.782L104.332 9.062L104.262 10H99.7956ZM109.414 10.056C108.938 10.056 108.471 10.0047 108.014 9.902C107.566 9.79933 107.16 9.66867 106.796 9.51L106.866 7.06L107.874 7.116L108.112 8.586C108.261 8.642 108.448 8.698 108.672 8.754C108.896 8.81 109.129 8.838 109.372 8.838C109.68 8.838 109.969 8.79133 110.24 8.698C110.52 8.59533 110.744 8.44133 110.912 8.236C111.089 8.03067 111.178 7.76933 111.178 7.452C111.178 7.2 111.126 6.98533 111.024 6.808C110.921 6.63067 110.762 6.46267 110.548 6.304C110.333 6.14533 110.044 5.982 109.68 5.814C109.316 5.63667 108.961 5.464 108.616 5.296C108.27 5.128 107.958 4.93667 107.678 4.722C107.407 4.50733 107.188 4.25067 107.02 3.952C106.861 3.644 106.782 3.27067 106.782 2.832C106.782 2.31867 106.917 1.87533 107.188 1.502C107.468 1.11933 107.841 0.825333 108.308 0.62C108.784 0.414666 109.297 0.312 109.848 0.312C110.286 0.312 110.711 0.354 111.122 0.438C111.532 0.512666 111.915 0.610666 112.27 0.731999L112.466 3.154H111.486L110.842 1.67C110.692 1.62333 110.529 1.59067 110.352 1.572C110.174 1.544 109.997 1.53 109.82 1.53C109.521 1.53 109.25 1.58133 109.008 1.684C108.774 1.77733 108.588 1.91733 108.448 2.104C108.317 2.28133 108.252 2.49133 108.252 2.734C108.252 2.97667 108.317 3.18667 108.448 3.364C108.578 3.54133 108.746 3.69533 108.952 3.826C109.166 3.95667 109.4 4.078 109.652 4.19C109.904 4.29267 110.146 4.4 110.38 4.512C110.94 4.77333 111.383 5.044 111.71 5.324C112.046 5.59467 112.288 5.88867 112.438 6.206C112.587 6.52333 112.662 6.878 112.662 7.27C112.662 7.746 112.568 8.16133 112.382 8.516C112.204 8.86133 111.962 9.15067 111.654 9.384C111.346 9.608 110.996 9.776 110.604 9.888C110.212 10 109.815 10.056 109.414 10.056ZM119.13 10L117.464 1.516L116.806 1.306V0.325999H119.844L119.97 1.194L118.934 1.418L120.292 8.39L122.448 0.577999H124.058L126.172 8.502L127.502 1.39L126.368 1.18L126.438 0.325999H129.476V1.278L128.636 1.558L126.956 10H125.108L123.064 2.44L121.076 10H119.13ZM133.998 10.056C133.335 10.056 132.752 9.93 132.248 9.678C131.753 9.41667 131.342 9.05733 131.016 8.6C130.689 8.14267 130.442 7.62467 130.274 7.046C130.115 6.458 130.036 5.83733 130.036 5.184C130.036 4.53067 130.115 3.91 130.274 3.322C130.442 2.734 130.689 2.216 131.016 1.768C131.342 1.31067 131.753 0.956 132.248 0.704C132.752 0.442666 133.335 0.312 133.998 0.312C134.66 0.312 135.234 0.442666 135.72 0.704C136.214 0.956 136.625 1.31067 136.952 1.768C137.278 2.216 137.526 2.734 137.694 3.322C137.862 3.91 137.946 4.53067 137.946 5.184C137.946 5.83733 137.862 6.458 137.694 7.046C137.526 7.62467 137.278 8.14267 136.952 8.6C136.625 9.05733 136.214 9.41667 135.72 9.678C135.234 9.93 134.66 10.056 133.998 10.056ZM133.998 8.838C134.408 8.838 134.768 8.74 135.076 8.544C135.384 8.33867 135.64 8.068 135.846 7.732C136.051 7.396 136.205 7.01333 136.308 6.584C136.41 6.14533 136.462 5.688 136.462 5.212C136.462 4.736 136.41 4.27867 136.308 3.84C136.205 3.40133 136.051 3.00933 135.846 2.664C135.64 2.31867 135.384 2.04333 135.076 1.838C134.768 1.63267 134.408 1.53 133.998 1.53C133.578 1.53 133.209 1.63267 132.892 1.838C132.584 2.04333 132.327 2.31867 132.122 2.664C131.916 3.00933 131.762 3.40133 131.66 3.84C131.557 4.27867 131.506 4.736 131.506 5.212C131.506 5.688 131.557 6.14533 131.66 6.584C131.762 7.01333 131.916 7.396 132.122 7.732C132.327 8.068 132.584 8.33867 132.892 8.544C133.209 8.74 133.578 8.838 133.998 8.838ZM139.199 10L139.087 9.006L139.969 8.824V1.474L139.101 1.39V0.325999H142.055C142.877 0.325999 143.577 0.447333 144.155 0.69C144.734 0.923333 145.173 1.26867 145.471 1.726C145.779 2.18333 145.933 2.734 145.933 3.378C145.933 4.09667 145.747 4.68933 145.373 5.156C145 5.61333 144.51 5.954 143.903 6.178L145.233 8.852L146.129 9.02V10H144.099L142.531 6.5C142.363 6.50933 142.191 6.51867 142.013 6.528C141.836 6.53733 141.631 6.542 141.397 6.542V8.838L142.293 9.02V10H139.199ZM141.397 5.31H141.999C142.513 5.31 142.951 5.24467 143.315 5.114C143.679 4.974 143.959 4.764 144.155 4.484C144.361 4.19467 144.463 3.83533 144.463 3.406C144.463 2.99533 144.375 2.65467 144.197 2.384C144.02 2.104 143.745 1.89867 143.371 1.768C143.007 1.628 142.541 1.558 141.971 1.558H141.397V5.31ZM147.362 10L147.208 8.978L148.062 8.838V1.46L147.222 1.376V0.325999H150.33L150.47 1.362L149.49 1.516V8.782H152.192L152.696 7.368H153.592L153.312 10H147.362ZM154.513 10L154.373 8.978L155.227 8.796V1.46L154.387 1.362V0.325999H156.641C157.696 0.325999 158.615 0.503333 159.399 0.857999C160.192 1.20333 160.808 1.726 161.247 2.426C161.686 3.11667 161.905 3.99867 161.905 5.072C161.905 6.14533 161.714 7.05067 161.331 7.788C160.948 8.516 160.393 9.06667 159.665 9.44C158.946 9.81333 158.074 10 157.047 10H154.513ZM157.075 8.796C157.691 8.796 158.209 8.70267 158.629 8.516C159.058 8.32933 159.404 8.068 159.665 7.732C159.926 7.396 160.118 7.004 160.239 6.556C160.36 6.108 160.421 5.62267 160.421 5.1C160.421 4.36267 160.281 3.728 160.001 3.196C159.73 2.664 159.329 2.258 158.797 1.978C158.265 1.698 157.621 1.55333 156.865 1.544H156.641V8.782L157.075 8.796Z" fill="black"/>
</svg>
