<svg width="388" height="258" viewBox="0 0 388 258" fill="none" xmlns="http://www.w3.org/2000/svg">
<path d="M28.1299 95.1407C-0.725367 168.546 35.8243 196.784 98.708 247.714C158.702 191.294 203.474 164.467 160.608 63.6671L157.83 79.4241L117.852 29.727C122.175 47.1444 119.53 56.0158 110.559 71.0889C132.035 117.996 136.889 141.557 112.253 170.899C100.05 162.774 95.8103 155.703 92.4945 138.984C86.1376 147.087 83.7092 152.823 81.7235 165.516C62.4053 135.521 63.1591 121.283 77.2537 98.7254C101.993 60.1057 104.795 40.6126 93.0557 9.10794C82.1688 37.4799 69.2546 59.614 31.0867 112.924L28.1299 95.1407Z" fill="#000080" stroke="#000080"/>
<path d="M115.034 141.972L102.139 134.438L115.111 156.905L115.034 141.972Z" fill="#002E6E"/>
<path d="M226.491 196.206L234.12 66H209.054L226.491 196.206ZM226.491 196.206C206.511 183.346 183.77 164.281 217.772 131.103C260.275 89.6299 255.928 225.225 366 189.539" stroke="#000080"/>
<path d="M275.642 92.2106L254.858 80.2106C257.25 100.067 247.331 108.581 242.688 111.289L259.165 101.75L275.642 92.2106Z" fill="#000080" stroke="#000080"/>
<path d="M269.341 118.818V145H266.17V118.818H269.341ZM275.698 145V118.818H284.544C286.59 118.818 288.269 119.168 289.581 119.866C290.894 120.557 291.865 121.507 292.496 122.717C293.127 123.928 293.442 125.304 293.442 126.847C293.442 128.389 293.127 129.757 292.496 130.95C291.865 132.143 290.898 133.081 289.594 133.763C288.29 134.436 286.624 134.773 284.596 134.773H277.436V131.909H284.493C285.891 131.909 287.016 131.705 287.868 131.295C288.729 130.886 289.351 130.307 289.735 129.557C290.127 128.798 290.323 127.895 290.323 126.847C290.323 125.798 290.127 124.882 289.735 124.098C289.343 123.314 288.716 122.709 287.855 122.283C286.995 121.848 285.857 121.631 284.442 121.631H278.868V145H275.698ZM288.022 133.239L294.465 145H290.783L284.442 133.239H288.022ZM297.293 121.631V118.818H316.93V121.631H308.697V145H305.526V121.631H297.293ZM321.823 145V118.818H324.993V130.477H338.953V118.818H342.124V145H338.953V133.29H324.993V145H321.823ZM351.642 118.818V145H348.471V118.818H351.642ZM357.999 145V118.818H361.169V131.807H361.476L373.237 118.818H377.379L366.385 130.631L377.379 145H373.544L364.442 132.83L361.169 136.511V145H357.999Z" fill="black"/>
<path d="M226.126 216L225.944 215.118L226.714 214.866L229.444 206.326H230.914L233.658 214.866L234.316 215.118L234.162 216H230.984V215.16L232.118 214.866L231.502 212.794H228.576L227.946 214.908L229.178 215.146V216H226.126ZM228.926 211.604H231.04L230.032 207.866L228.926 211.604ZM235.11 216L234.998 215.006L235.88 214.824V207.474L235.012 207.39V206.326H237.966C238.787 206.326 239.487 206.447 240.066 206.69C240.644 206.923 241.083 207.269 241.382 207.726C241.69 208.183 241.844 208.734 241.844 209.378C241.844 210.097 241.657 210.689 241.284 211.156C240.91 211.613 240.42 211.954 239.814 212.178L241.144 214.852L242.04 215.02V216H240.01L238.442 212.5C238.274 212.509 238.101 212.519 237.924 212.528C237.746 212.537 237.541 212.542 237.308 212.542V214.838L238.204 215.02V216H235.11ZM237.308 211.31H237.91C238.423 211.31 238.862 211.245 239.226 211.114C239.59 210.974 239.87 210.764 240.066 210.484C240.271 210.195 240.374 209.835 240.374 209.406C240.374 208.995 240.285 208.655 240.108 208.384C239.93 208.104 239.655 207.899 239.282 207.768C238.918 207.628 238.451 207.558 237.882 207.558H237.308V211.31ZM244.337 216L244.267 215.062L245.863 214.782V207.544H244.113L243.539 208.93H242.671L242.965 206.326H250.133L250.441 208.916H249.587L248.999 207.544H247.263V214.782L248.873 215.062L248.803 216H244.337ZM253.955 216.056C253.479 216.056 253.012 216.005 252.555 215.902C252.107 215.799 251.701 215.669 251.337 215.51L251.407 213.06L252.415 213.116L252.653 214.586C252.802 214.642 252.989 214.698 253.213 214.754C253.437 214.81 253.67 214.838 253.913 214.838C254.221 214.838 254.51 214.791 254.781 214.698C255.061 214.595 255.285 214.441 255.453 214.236C255.63 214.031 255.719 213.769 255.719 213.452C255.719 213.2 255.667 212.985 255.565 212.808C255.462 212.631 255.303 212.463 255.089 212.304C254.874 212.145 254.585 211.982 254.221 211.814C253.857 211.637 253.502 211.464 253.157 211.296C252.811 211.128 252.499 210.937 252.219 210.722C251.948 210.507 251.729 210.251 251.561 209.952C251.402 209.644 251.323 209.271 251.323 208.832C251.323 208.319 251.458 207.875 251.729 207.502C252.009 207.119 252.382 206.825 252.849 206.62C253.325 206.415 253.838 206.312 254.389 206.312C254.827 206.312 255.252 206.354 255.663 206.438C256.073 206.513 256.456 206.611 256.811 206.732L257.007 209.154H256.027L255.383 207.67C255.233 207.623 255.07 207.591 254.893 207.572C254.715 207.544 254.538 207.53 254.361 207.53C254.062 207.53 253.791 207.581 253.549 207.684C253.315 207.777 253.129 207.917 252.989 208.104C252.858 208.281 252.793 208.491 252.793 208.734C252.793 208.977 252.858 209.187 252.989 209.364C253.119 209.541 253.287 209.695 253.493 209.826C253.707 209.957 253.941 210.078 254.193 210.19C254.445 210.293 254.687 210.4 254.921 210.512C255.481 210.773 255.924 211.044 256.251 211.324C256.587 211.595 256.829 211.889 256.979 212.206C257.128 212.523 257.203 212.878 257.203 213.27C257.203 213.746 257.109 214.161 256.923 214.516C256.745 214.861 256.503 215.151 256.195 215.384C255.887 215.608 255.537 215.776 255.145 215.888C254.753 216 254.356 216.056 253.955 216.056ZM261.263 216L261.081 215.118L261.851 214.866L264.581 206.326H266.051L268.795 214.866L269.453 215.118L269.299 216H266.121V215.16L267.255 214.866L266.639 212.794H263.713L263.083 214.908L264.315 215.146V216H261.263ZM264.063 211.604H266.177L265.169 207.866L264.063 211.604ZM270.288 216L270.12 214.992L271.016 214.81V207.488L270.162 207.404V206.326H273.144L276.616 214.796V207.488L275.762 207.362V206.326H278.52L278.702 207.376L277.806 207.544V216H275.622L272.192 207.684V214.796L273.018 214.978L273.004 216H270.288ZM280.023 216L279.883 214.978L280.737 214.796V207.46L279.897 207.362V206.326H282.151C283.205 206.326 284.125 206.503 284.909 206.858C285.702 207.203 286.318 207.726 286.757 208.426C287.195 209.117 287.415 209.999 287.415 211.072C287.415 212.145 287.223 213.051 286.841 213.788C286.458 214.516 285.903 215.067 285.175 215.44C284.456 215.813 283.583 216 282.557 216H280.023ZM282.585 214.796C283.201 214.796 283.719 214.703 284.139 214.516C284.568 214.329 284.913 214.068 285.175 213.732C285.436 213.396 285.627 213.004 285.749 212.556C285.87 212.108 285.931 211.623 285.931 211.1C285.931 210.363 285.791 209.728 285.511 209.196C285.24 208.664 284.839 208.258 284.307 207.978C283.775 207.698 283.131 207.553 282.375 207.544H282.151V214.782L282.585 214.796ZM296.463 216.056C295.8 216.056 295.184 215.949 294.615 215.734C294.046 215.51 293.546 215.188 293.117 214.768C292.688 214.348 292.356 213.844 292.123 213.256C291.89 212.659 291.773 211.987 291.773 211.24C291.773 210.493 291.894 209.821 292.137 209.224C292.38 208.627 292.716 208.113 293.145 207.684C293.574 207.245 294.069 206.909 294.629 206.676C295.189 206.443 295.786 206.326 296.421 206.326C296.888 206.326 297.289 206.359 297.625 206.424C297.97 206.48 298.241 206.536 298.437 206.592L298.703 209.154H297.737L297.135 207.6C297.07 207.591 296.995 207.581 296.911 207.572C296.836 207.553 296.701 207.544 296.505 207.544C295.87 207.544 295.306 207.703 294.811 208.02C294.326 208.337 293.943 208.767 293.663 209.308C293.392 209.84 293.248 210.447 293.229 211.128C293.238 211.828 293.374 212.458 293.635 213.018C293.896 213.569 294.27 214.012 294.755 214.348C295.24 214.675 295.819 214.838 296.491 214.838C296.846 214.838 297.2 214.782 297.555 214.67C297.91 214.549 298.213 214.381 298.465 214.166L298.927 215.23C298.768 215.379 298.554 215.519 298.283 215.65C298.022 215.771 297.732 215.869 297.415 215.944C297.098 216.019 296.78 216.056 296.463 216.056ZM300.065 216L299.953 215.006L300.835 214.824V207.474L299.967 207.39V206.326H302.921C303.742 206.326 304.442 206.447 305.021 206.69C305.599 206.923 306.038 207.269 306.337 207.726C306.645 208.183 306.799 208.734 306.799 209.378C306.799 210.097 306.612 210.689 306.239 211.156C305.865 211.613 305.375 211.954 304.769 212.178L306.099 214.852L306.995 215.02V216H304.965L303.397 212.5C303.229 212.509 303.056 212.519 302.879 212.528C302.701 212.537 302.496 212.542 302.263 212.542V214.838L303.159 215.02V216H300.065ZM302.263 211.31H302.865C303.378 211.31 303.817 211.245 304.181 211.114C304.545 210.974 304.825 210.764 305.021 210.484C305.226 210.195 305.329 209.835 305.329 209.406C305.329 208.995 305.24 208.655 305.063 208.384C304.885 208.104 304.61 207.899 304.237 207.768C303.873 207.628 303.406 207.558 302.837 207.558H302.263V211.31ZM307.556 216L307.374 215.118L308.144 214.866L310.874 206.326H312.344L315.088 214.866L315.746 215.118L315.592 216H312.414V215.16L313.548 214.866L312.932 212.794H310.006L309.376 214.908L310.608 215.146V216H307.556ZM310.356 211.604H312.47L311.462 207.866L310.356 211.604ZM316.581 216L316.441 214.978L317.295 214.81V207.46L316.455 207.376V206.326H322.447L322.727 208.972H321.845L321.299 207.544H318.709V210.498H320.907V211.688H318.709V214.754L320.977 215.076L320.893 216H316.581ZM324.796 216L324.726 215.062L326.322 214.782V207.544H324.572L323.998 208.93H323.13L323.424 206.326H330.592L330.9 208.916H330.046L329.458 207.544H327.722V214.782L329.332 215.062L329.262 216H324.796ZM334.414 216.056C333.938 216.056 333.471 216.005 333.014 215.902C332.566 215.799 332.16 215.669 331.796 215.51L331.866 213.06L332.874 213.116L333.112 214.586C333.261 214.642 333.448 214.698 333.672 214.754C333.896 214.81 334.129 214.838 334.372 214.838C334.68 214.838 334.969 214.791 335.24 214.698C335.52 214.595 335.744 214.441 335.912 214.236C336.089 214.031 336.178 213.769 336.178 213.452C336.178 213.2 336.126 212.985 336.024 212.808C335.921 212.631 335.762 212.463 335.548 212.304C335.333 212.145 335.044 211.982 334.68 211.814C334.316 211.637 333.961 211.464 333.616 211.296C333.27 211.128 332.958 210.937 332.678 210.722C332.407 210.507 332.188 210.251 332.02 209.952C331.861 209.644 331.782 209.271 331.782 208.832C331.782 208.319 331.917 207.875 332.188 207.502C332.468 207.119 332.841 206.825 333.308 206.62C333.784 206.415 334.297 206.312 334.848 206.312C335.286 206.312 335.711 206.354 336.122 206.438C336.532 206.513 336.915 206.611 337.27 206.732L337.466 209.154H336.486L335.842 207.67C335.692 207.623 335.529 207.591 335.352 207.572C335.174 207.544 334.997 207.53 334.82 207.53C334.521 207.53 334.25 207.581 334.008 207.684C333.774 207.777 333.588 207.917 333.448 208.104C333.317 208.281 333.252 208.491 333.252 208.734C333.252 208.977 333.317 209.187 333.448 209.364C333.578 209.541 333.746 209.695 333.952 209.826C334.166 209.957 334.4 210.078 334.652 210.19C334.904 210.293 335.146 210.4 335.38 210.512C335.94 210.773 336.383 211.044 336.71 211.324C337.046 211.595 337.288 211.889 337.438 212.206C337.587 212.523 337.662 212.878 337.662 213.27C337.662 213.746 337.568 214.161 337.382 214.516C337.204 214.861 336.962 215.151 336.654 215.384C336.346 215.608 335.996 215.776 335.604 215.888C335.212 216 334.815 216.056 334.414 216.056ZM344.13 216L342.464 207.516L341.806 207.306V206.326H344.844L344.97 207.194L343.934 207.418L345.292 214.39L347.448 206.578H349.058L351.172 214.502L352.502 207.39L351.368 207.18L351.438 206.326H354.476V207.278L353.636 207.558L351.956 216H350.108L348.064 208.44L346.076 216H344.13ZM358.998 216.056C358.335 216.056 357.752 215.93 357.248 215.678C356.753 215.417 356.342 215.057 356.016 214.6C355.689 214.143 355.442 213.625 355.274 213.046C355.115 212.458 355.036 211.837 355.036 211.184C355.036 210.531 355.115 209.91 355.274 209.322C355.442 208.734 355.689 208.216 356.016 207.768C356.342 207.311 356.753 206.956 357.248 206.704C357.752 206.443 358.335 206.312 358.998 206.312C359.66 206.312 360.234 206.443 360.72 206.704C361.214 206.956 361.625 207.311 361.952 207.768C362.278 208.216 362.526 208.734 362.694 209.322C362.862 209.91 362.946 210.531 362.946 211.184C362.946 211.837 362.862 212.458 362.694 213.046C362.526 213.625 362.278 214.143 361.952 214.6C361.625 215.057 361.214 215.417 360.72 215.678C360.234 215.93 359.66 216.056 358.998 216.056ZM358.998 214.838C359.408 214.838 359.768 214.74 360.076 214.544C360.384 214.339 360.64 214.068 360.846 213.732C361.051 213.396 361.205 213.013 361.308 212.584C361.41 212.145 361.462 211.688 361.462 211.212C361.462 210.736 361.41 210.279 361.308 209.84C361.205 209.401 361.051 209.009 360.846 208.664C360.64 208.319 360.384 208.043 360.076 207.838C359.768 207.633 359.408 207.53 358.998 207.53C358.578 207.53 358.209 207.633 357.892 207.838C357.584 208.043 357.327 208.319 357.122 208.664C356.916 209.009 356.762 209.401 356.66 209.84C356.557 210.279 356.506 210.736 356.506 211.212C356.506 211.688 356.557 212.145 356.66 212.584C356.762 213.013 356.916 213.396 357.122 213.732C357.327 214.068 357.584 214.339 357.892 214.544C358.209 214.74 358.578 214.838 358.998 214.838ZM364.199 216L364.087 215.006L364.969 214.824V207.474L364.101 207.39V206.326H367.055C367.877 206.326 368.577 206.447 369.155 206.69C369.734 206.923 370.173 207.269 370.471 207.726C370.779 208.183 370.933 208.734 370.933 209.378C370.933 210.097 370.747 210.689 370.373 211.156C370 211.613 369.51 211.954 368.903 212.178L370.233 214.852L371.129 215.02V216H369.099L367.531 212.5C367.363 212.509 367.191 212.519 367.013 212.528C366.836 212.537 366.631 212.542 366.397 212.542V214.838L367.293 215.02V216H364.199ZM366.397 211.31H366.999C367.513 211.31 367.951 211.245 368.315 211.114C368.679 210.974 368.959 210.764 369.155 210.484C369.361 210.195 369.463 209.835 369.463 209.406C369.463 208.995 369.375 208.655 369.197 208.384C369.02 208.104 368.745 207.899 368.371 207.768C368.007 207.628 367.541 207.558 366.971 207.558H366.397V211.31ZM372.362 216L372.208 214.978L373.062 214.838V207.46L372.222 207.376V206.326H375.33L375.47 207.362L374.49 207.516V214.782H377.192L377.696 213.368H378.592L378.312 216H372.362ZM379.513 216L379.373 214.978L380.227 214.796V207.46L379.387 207.362V206.326H381.641C382.696 206.326 383.615 206.503 384.399 206.858C385.192 207.203 385.808 207.726 386.247 208.426C386.686 209.117 386.905 209.999 386.905 211.072C386.905 212.145 386.714 213.051 386.331 213.788C385.948 214.516 385.393 215.067 384.665 215.44C383.946 215.813 383.074 216 382.047 216H379.513ZM382.075 214.796C382.691 214.796 383.209 214.703 383.629 214.516C384.058 214.329 384.404 214.068 384.665 213.732C384.926 213.396 385.118 213.004 385.239 212.556C385.36 212.108 385.421 211.623 385.421 211.1C385.421 210.363 385.281 209.728 385.001 209.196C384.73 208.664 384.329 208.258 383.797 207.978C383.265 207.698 382.621 207.553 381.865 207.544H381.641V214.782L382.075 214.796Z" fill="black"/>
</svg>
