<svg width="112" height="27" viewBox="0 0 112 27" fill="none" xmlns="http://www.w3.org/2000/svg">
<path d="M3.34091 0.818181V27H0.170455V0.818181H3.34091ZM9.6978 27V0.818181H18.5444C20.5898 0.818181 22.2688 1.16761 23.5813 1.86648C24.8938 2.55682 25.8654 3.5071 26.4961 4.71733C27.1268 5.92756 27.4421 7.30398 27.4421 8.84659C27.4421 10.3892 27.1268 11.7571 26.4961 12.9503C25.8654 14.1435 24.8981 15.081 23.5941 15.7628C22.2901 16.4361 20.6239 16.7727 18.5955 16.7727H11.4364V13.9091H18.4933C19.891 13.9091 21.016 13.7045 21.8683 13.2955C22.729 12.8864 23.3512 12.3068 23.7347 11.5568C24.1268 10.7983 24.3228 9.89489 24.3228 8.84659C24.3228 7.79829 24.1268 6.8821 23.7347 6.09801C23.3427 5.31392 22.7163 4.70881 21.8555 4.28267C20.9947 3.84801 19.8569 3.63068 18.4421 3.63068H12.8683V27H9.6978ZM22.0217 15.2386L28.4648 27H24.783L18.4421 15.2386H22.0217ZM31.2933 3.63068V0.818181H50.9297V3.63068H42.6967V27H39.5263V3.63068H31.2933ZM55.8228 27V0.818181H58.9933V12.4773H72.9535V0.818181H76.1239V27H72.9535V15.2898H58.9933V27H55.8228ZM85.6417 0.818181V27H82.4712V0.818181H85.6417ZM91.9986 27V0.818181H95.169V13.8068H95.4759L107.237 0.818181H111.379L100.385 12.6307L111.379 27H107.544L98.4418 14.8295L95.169 18.5114V27H91.9986Z" fill="black"/>
</svg>
