<svg width="162" height="242" viewBox="0 0 162 242" fill="none" xmlns="http://www.w3.org/2000/svg">
<path d="M11.1299 88.1407C-17.7254 161.546 18.8243 189.784 81.708 240.714C141.702 184.294 186.474 157.467 143.608 56.6671L140.83 72.4241L100.852 22.727C105.175 40.1444 102.53 49.0158 93.5587 64.0889C115.035 110.996 119.889 134.557 95.2526 163.899C83.0501 155.774 78.8103 148.703 75.4945 131.984C69.1376 140.087 66.7092 145.823 64.7235 158.516C45.4053 128.521 46.1591 114.283 60.2537 91.7254C84.9933 53.1057 87.7951 33.6126 76.0557 2.10794C65.1688 30.4799 52.2546 52.614 14.0867 105.924L11.1299 88.1407Z" fill="#000080" stroke="#000080"/>
</svg>
