<svg width="162" height="18" viewBox="0 0 162 18" fill="none" xmlns="http://www.w3.org/2000/svg">
<path id="ARTS AND CRAFTS WORLD" d="M0.126 14L-0.056 13.118L0.714 12.866L3.444 4.326H4.914L7.658 12.866L8.316 13.118L8.162 14H4.984V13.16L6.118 12.866L5.502 10.794H2.576L1.946 12.908L3.178 13.146V14H0.126ZM2.926 9.604H5.04L4.032 5.866L2.926 9.604ZM9.10952 14L8.99752 13.006L9.87952 12.824V5.474L9.01152 5.39V4.326H11.9655C12.7868 4.326 13.4868 4.44733 14.0655 4.69C14.6442 4.92333 15.0828 5.26867 15.3815 5.726C15.6895 6.18333 15.8435 6.734 15.8435 7.378C15.8435 8.09667 15.6568 8.68933 15.2835 9.156C14.9102 9.61333 14.4202 9.954 13.8135 10.178L15.1435 12.852L16.0395 13.02V14H14.0095L12.4415 10.5C12.2735 10.5093 12.1008 10.5187 11.9235 10.528C11.7462 10.5373 11.5408 10.542 11.3075 10.542V12.838L12.2035 13.02V14H9.10952ZM11.3075 9.31H11.9095C12.4228 9.31 12.8615 9.24467 13.2255 9.114C13.5895 8.974 13.8695 8.764 14.0655 8.484C14.2708 8.19467 14.3735 7.83533 14.3735 7.406C14.3735 6.99533 14.2848 6.65467 14.1075 6.384C13.9302 6.104 13.6548 5.89867 13.2815 5.768C12.9175 5.628 12.4508 5.558 11.8815 5.558H11.3075V9.31ZM18.3366 14L18.2666 13.062L19.8626 12.782V5.544H18.1126L17.5386 6.93H16.6706L16.9646 4.326H24.1326L24.4406 6.916H23.5866L22.9986 5.544H21.2626V12.782L22.8726 13.062L22.8026 14H18.3366ZM27.9547 14.056C27.4787 14.056 27.0121 14.0047 26.5547 13.902C26.1067 13.7993 25.7007 13.6687 25.3367 13.51L25.4067 11.06L26.4147 11.116L26.6527 12.586C26.8021 12.642 26.9887 12.698 27.2127 12.754C27.4367 12.81 27.6701 12.838 27.9127 12.838C28.2207 12.838 28.5101 12.7913 28.7807 12.698C29.0607 12.5953 29.2847 12.4413 29.4527 12.236C29.6301 12.0307 29.7187 11.7693 29.7187 11.452C29.7187 11.2 29.6674 10.9853 29.5647 10.808C29.4621 10.6307 29.3034 10.4627 29.0887 10.304C28.8741 10.1453 28.5847 9.982 28.2207 9.814C27.8567 9.63667 27.5021 9.464 27.1567 9.296C26.8114 9.128 26.4987 8.93667 26.2187 8.722C25.9481 8.50733 25.7287 8.25067 25.5607 7.952C25.4021 7.644 25.3227 7.27067 25.3227 6.832C25.3227 6.31867 25.4581 5.87533 25.7287 5.502C26.0087 5.11933 26.3821 4.82533 26.8487 4.62C27.3247 4.41467 27.8381 4.312 28.3887 4.312C28.8274 4.312 29.2521 4.354 29.6627 4.438C30.0734 4.51267 30.4561 4.61067 30.8107 4.732L31.0067 7.154H30.0267L29.3827 5.67C29.2334 5.62333 29.0701 5.59067 28.8927 5.572C28.7154 5.544 28.5381 5.53 28.3607 5.53C28.0621 5.53 27.7914 5.58133 27.5487 5.684C27.3154 5.77733 27.1287 5.91733 26.9887 6.104C26.8581 6.28133 26.7927 6.49133 26.7927 6.734C26.7927 6.97667 26.8581 7.18667 26.9887 7.364C27.1194 7.54133 27.2874 7.69533 27.4927 7.826C27.7074 7.95667 27.9407 8.078 28.1927 8.19C28.4447 8.29267 28.6874 8.4 28.9207 8.512C29.4807 8.77333 29.9241 9.044 30.2507 9.324C30.5867 9.59467 30.8294 9.88867 30.9787 10.206C31.1281 10.5233 31.2027 10.878 31.2027 11.27C31.2027 11.746 31.1094 12.1613 30.9227 12.516C30.7454 12.8613 30.5027 13.1507 30.1947 13.384C29.8867 13.608 29.5367 13.776 29.1447 13.888C28.7527 14 28.3561 14.056 27.9547 14.056ZM35.2627 14L35.0807 13.118L35.8507 12.866L38.5807 4.326H40.0507L42.7947 12.866L43.4527 13.118L43.2987 14H40.1207V13.16L41.2547 12.866L40.6387 10.794H37.7127L37.0827 12.908L38.3147 13.146V14H35.2627ZM38.0627 9.604H40.1767L39.1687 5.866L38.0627 9.604ZM44.2882 14L44.1202 12.992L45.0162 12.81V5.488L44.1622 5.404V4.326H47.1442L50.6162 12.796V5.488L49.7622 5.362V4.326H52.5202L52.7022 5.376L51.8062 5.544V14H49.6222L46.1922 5.684V12.796L47.0182 12.978L47.0042 14H44.2882ZM54.0226 14L53.8826 12.978L54.7366 12.796V5.46L53.8966 5.362V4.326H56.1506C57.2053 4.326 58.1246 4.50333 58.9086 4.858C59.7019 5.20333 60.3179 5.726 60.7566 6.426C61.1953 7.11667 61.4146 7.99867 61.4146 9.072C61.4146 10.1453 61.2233 11.0507 60.8406 11.788C60.4579 12.516 59.9026 13.0667 59.1746 13.44C58.4559 13.8133 57.5833 14 56.5566 14H54.0226ZM56.5846 12.796C57.2006 12.796 57.7186 12.7027 58.1386 12.516C58.5679 12.3293 58.9133 12.068 59.1746 11.732C59.4359 11.396 59.6273 11.004 59.7486 10.556C59.8699 10.108 59.9306 9.62267 59.9306 9.1C59.9306 8.36267 59.7906 7.728 59.5106 7.196C59.2399 6.664 58.8386 6.258 58.3066 5.978C57.7746 5.698 57.1306 5.55333 56.3746 5.544H56.1506V12.782L56.5846 12.796ZM70.4629 14.056C69.8002 14.056 69.1842 13.9487 68.6149 13.734C68.0455 13.51 67.5462 13.188 67.1169 12.768C66.6875 12.348 66.3562 11.844 66.1229 11.256C65.8895 10.6587 65.7729 9.98667 65.7729 9.24C65.7729 8.49333 65.8942 7.82133 66.1369 7.224C66.3795 6.62667 66.7155 6.11333 67.1449 5.684C67.5742 5.24533 68.0689 4.90933 68.6289 4.676C69.1889 4.44267 69.7862 4.326 70.4209 4.326C70.8875 4.326 71.2889 4.35867 71.6249 4.424C71.9702 4.48 72.2409 4.536 72.4369 4.592L72.7029 7.154H71.7369L71.1349 5.6C71.0695 5.59067 70.9949 5.58133 70.9109 5.572C70.8362 5.55333 70.7009 5.544 70.5049 5.544C69.8702 5.544 69.3055 5.70267 68.8109 6.02C68.3255 6.33733 67.9429 6.76667 67.6629 7.308C67.3922 7.84 67.2475 8.44667 67.2289 9.128C67.2382 9.828 67.3735 10.458 67.6349 11.018C67.8962 11.5687 68.2695 12.012 68.7549 12.348C69.2402 12.6747 69.8189 12.838 70.4909 12.838C70.8455 12.838 71.2002 12.782 71.5549 12.67C71.9095 12.5487 72.2129 12.3807 72.4649 12.166L72.9269 13.23C72.7682 13.3793 72.5535 13.5193 72.2829 13.65C72.0215 13.7713 71.7322 13.8693 71.4149 13.944C71.0975 14.0187 70.7802 14.056 70.4629 14.056ZM74.0646 14L73.9526 13.006L74.8346 12.824V5.474L73.9666 5.39V4.326H76.9206C77.7419 4.326 78.4419 4.44733 79.0206 4.69C79.5993 4.92333 80.0379 5.26867 80.3366 5.726C80.6446 6.18333 80.7986 6.734 80.7986 7.378C80.7986 8.09667 80.6119 8.68933 80.2386 9.156C79.8653 9.61333 79.3753 9.954 78.7686 10.178L80.0986 12.852L80.9946 13.02V14H78.9646L77.3966 10.5C77.2286 10.5093 77.0559 10.5187 76.8786 10.528C76.7013 10.5373 76.4959 10.542 76.2626 10.542V12.838L77.1586 13.02V14H74.0646ZM76.2626 9.31H76.8646C77.3779 9.31 77.8166 9.24467 78.1806 9.114C78.5446 8.974 78.8246 8.764 79.0206 8.484C79.2259 8.19467 79.3286 7.83533 79.3286 7.406C79.3286 6.99533 79.2399 6.65467 79.0626 6.384C78.8853 6.104 78.6099 5.89867 78.2366 5.768C77.8726 5.628 77.4059 5.558 76.8366 5.558H76.2626V9.31ZM81.5557 14L81.3737 13.118L82.1437 12.866L84.8737 4.326H86.3437L89.0877 12.866L89.7457 13.118L89.5917 14H86.4137V13.16L87.5477 12.866L86.9317 10.794H84.0057L83.3757 12.908L84.6077 13.146V14H81.5557ZM84.3557 9.604H86.4697L85.4617 5.866L84.3557 9.604ZM90.5812 14L90.4412 12.978L91.2952 12.81V5.46L90.4552 5.376V4.326H96.4472L96.7272 6.972H95.8452L95.2992 5.544H92.7092V8.498H94.9072V9.688H92.7092V12.754L94.9772 13.076L94.8932 14H90.5812ZM98.7956 14L98.7256 13.062L100.322 12.782V5.544H98.5716L97.9976 6.93H97.1296L97.4236 4.326H104.592L104.9 6.916H104.046L103.458 5.544H101.722V12.782L103.332 13.062L103.262 14H98.7956ZM108.414 14.056C107.938 14.056 107.471 14.0047 107.014 13.902C106.566 13.7993 106.16 13.6687 105.796 13.51L105.866 11.06L106.874 11.116L107.112 12.586C107.261 12.642 107.448 12.698 107.672 12.754C107.896 12.81 108.129 12.838 108.372 12.838C108.68 12.838 108.969 12.7913 109.24 12.698C109.52 12.5953 109.744 12.4413 109.912 12.236C110.089 12.0307 110.178 11.7693 110.178 11.452C110.178 11.2 110.126 10.9853 110.024 10.808C109.921 10.6307 109.762 10.4627 109.548 10.304C109.333 10.1453 109.044 9.982 108.68 9.814C108.316 9.63667 107.961 9.464 107.616 9.296C107.27 9.128 106.958 8.93667 106.678 8.722C106.407 8.50733 106.188 8.25067 106.02 7.952C105.861 7.644 105.782 7.27067 105.782 6.832C105.782 6.31867 105.917 5.87533 106.188 5.502C106.468 5.11933 106.841 4.82533 107.308 4.62C107.784 4.41467 108.297 4.312 108.848 4.312C109.286 4.312 109.711 4.354 110.122 4.438C110.532 4.51267 110.915 4.61067 111.27 4.732L111.466 7.154H110.486L109.842 5.67C109.692 5.62333 109.529 5.59067 109.352 5.572C109.174 5.544 108.997 5.53 108.82 5.53C108.521 5.53 108.25 5.58133 108.008 5.684C107.774 5.77733 107.588 5.91733 107.448 6.104C107.317 6.28133 107.252 6.49133 107.252 6.734C107.252 6.97667 107.317 7.18667 107.448 7.364C107.578 7.54133 107.746 7.69533 107.952 7.826C108.166 7.95667 108.4 8.078 108.652 8.19C108.904 8.29267 109.146 8.4 109.38 8.512C109.94 8.77333 110.383 9.044 110.71 9.324C111.046 9.59467 111.288 9.88867 111.438 10.206C111.587 10.5233 111.662 10.878 111.662 11.27C111.662 11.746 111.568 12.1613 111.382 12.516C111.204 12.8613 110.962 13.1507 110.654 13.384C110.346 13.608 109.996 13.776 109.604 13.888C109.212 14 108.815 14.056 108.414 14.056ZM118.13 14L116.464 5.516L115.806 5.306V4.326H118.844L118.97 5.194L117.934 5.418L119.292 12.39L121.448 4.578H123.058L125.172 12.502L126.502 5.39L125.368 5.18L125.438 4.326H128.476V5.278L127.636 5.558L125.956 14H124.108L122.064 6.44L120.076 14H118.13ZM132.998 14.056C132.335 14.056 131.752 13.93 131.248 13.678C130.753 13.4167 130.342 13.0573 130.016 12.6C129.689 12.1427 129.442 11.6247 129.274 11.046C129.115 10.458 129.036 9.83733 129.036 9.184C129.036 8.53067 129.115 7.91 129.274 7.322C129.442 6.734 129.689 6.216 130.016 5.768C130.342 5.31067 130.753 4.956 131.248 4.704C131.752 4.44267 132.335 4.312 132.998 4.312C133.66 4.312 134.234 4.44267 134.72 4.704C135.214 4.956 135.625 5.31067 135.952 5.768C136.278 6.216 136.526 6.734 136.694 7.322C136.862 7.91 136.946 8.53067 136.946 9.184C136.946 9.83733 136.862 10.458 136.694 11.046C136.526 11.6247 136.278 12.1427 135.952 12.6C135.625 13.0573 135.214 13.4167 134.72 13.678C134.234 13.93 133.66 14.056 132.998 14.056ZM132.998 12.838C133.408 12.838 133.768 12.74 134.076 12.544C134.384 12.3387 134.64 12.068 134.846 11.732C135.051 11.396 135.205 11.0133 135.308 10.584C135.41 10.1453 135.462 9.688 135.462 9.212C135.462 8.736 135.41 8.27867 135.308 7.84C135.205 7.40133 135.051 7.00933 134.846 6.664C134.64 6.31867 134.384 6.04333 134.076 5.838C133.768 5.63267 133.408 5.53 132.998 5.53C132.578 5.53 132.209 5.63267 131.892 5.838C131.584 6.04333 131.327 6.31867 131.122 6.664C130.916 7.00933 130.762 7.40133 130.66 7.84C130.557 8.27867 130.506 8.736 130.506 9.212C130.506 9.688 130.557 10.1453 130.66 10.584C130.762 11.0133 130.916 11.396 131.122 11.732C131.327 12.068 131.584 12.3387 131.892 12.544C132.209 12.74 132.578 12.838 132.998 12.838ZM138.199 14L138.087 13.006L138.969 12.824V5.474L138.101 5.39V4.326H141.055C141.877 4.326 142.577 4.44733 143.155 4.69C143.734 4.92333 144.173 5.26867 144.471 5.726C144.779 6.18333 144.933 6.734 144.933 7.378C144.933 8.09667 144.747 8.68933 144.373 9.156C144 9.61333 143.51 9.954 142.903 10.178L144.233 12.852L145.129 13.02V14H143.099L141.531 10.5C141.363 10.5093 141.191 10.5187 141.013 10.528C140.836 10.5373 140.631 10.542 140.397 10.542V12.838L141.293 13.02V14H138.199ZM140.397 9.31H140.999C141.513 9.31 141.951 9.24467 142.315 9.114C142.679 8.974 142.959 8.764 143.155 8.484C143.361 8.19467 143.463 7.83533 143.463 7.406C143.463 6.99533 143.375 6.65467 143.197 6.384C143.02 6.104 142.745 5.89867 142.371 5.768C142.007 5.628 141.541 5.558 140.971 5.558H140.397V9.31ZM146.362 14L146.208 12.978L147.062 12.838V5.46L146.222 5.376V4.326H149.33L149.47 5.362L148.49 5.516V12.782H151.192L151.696 11.368H152.592L152.312 14H146.362ZM153.513 14L153.373 12.978L154.227 12.796V5.46L153.387 5.362V4.326H155.641C156.696 4.326 157.615 4.50333 158.399 4.858C159.192 5.20333 159.808 5.726 160.247 6.426C160.686 7.11667 160.905 7.99867 160.905 9.072C160.905 10.1453 160.714 11.0507 160.331 11.788C159.948 12.516 159.393 13.0667 158.665 13.44C157.946 13.8133 157.074 14 156.047 14H153.513ZM156.075 12.796C156.691 12.796 157.209 12.7027 157.629 12.516C158.058 12.3293 158.404 12.068 158.665 11.732C158.926 11.396 159.118 11.004 159.239 10.556C159.36 10.108 159.421 9.62267 159.421 9.1C159.421 8.36267 159.281 7.728 159.001 7.196C158.73 6.664 158.329 6.258 157.797 5.978C157.265 5.698 156.621 5.55333 155.865 5.544H155.641V12.782L156.075 12.796Z" fill="black"/>
</svg>
