<svg width="116" height="44" viewBox="0 0 116 44" fill="none" xmlns="http://www.w3.org/2000/svg">
<path id="IRTHIK" d="M6.34091 8.81818V35H3.17045V8.81818H6.34091ZM12.6978 35V8.81818H21.5444C23.5898 8.81818 25.2688 9.16761 26.5813 9.86648C27.8938 10.5568 28.8654 11.5071 29.4961 12.7173C30.1268 13.9276 30.4421 15.304 30.4421 16.8466C30.4421 18.3892 30.1268 19.7571 29.4961 20.9503C28.8654 22.1435 27.8981 23.081 26.5941 23.7628C25.2901 24.4361 23.6239 24.7727 21.5955 24.7727H14.4364V21.9091H21.4933C22.891 21.9091 24.016 21.7045 24.8683 21.2955C25.729 20.8864 26.3512 20.3068 26.7347 19.5568C27.1268 18.7983 27.3228 17.8949 27.3228 16.8466C27.3228 15.7983 27.1268 14.8821 26.7347 14.098C26.3427 13.3139 25.7163 12.7088 24.8555 12.2827C23.9947 11.848 22.8569 11.6307 21.4421 11.6307H15.8683V35H12.6978ZM25.0217 23.2386L31.4648 35H27.783L21.4421 23.2386H25.0217ZM34.2933 11.6307V8.81818H53.9297V11.6307H45.6967V35H42.5263V11.6307H34.2933ZM58.8228 35V8.81818H61.9933V20.4773H75.9535V8.81818H79.1239V35H75.9535V23.2898H61.9933V35H58.8228ZM88.6417 8.81818V35H85.4712V8.81818H88.6417ZM94.9986 35V8.81818H98.169V21.8068H98.4759L110.237 8.81818H114.379L103.385 20.6307L114.379 35H110.544L101.442 22.8295L98.169 26.5114V35H94.9986Z" fill="black"/>
</svg>
