<svg width="198" height="258" viewBox="0 0 198 258" fill="none" xmlns="http://www.w3.org/2000/svg">
<path id="Vector 1" d="M28.1299 95.1407C-0.725375 168.546 35.8243 196.784 98.708 247.714C158.702 191.294 203.474 164.467 160.608 63.6671L157.83 79.4241L117.852 29.727C122.175 47.1444 119.53 56.0158 110.559 71.0889C132.035 117.996 136.889 141.557 112.253 170.899C100.05 162.774 95.8103 155.703 92.4945 138.984C86.1376 147.087 83.7092 152.823 81.7235 165.516C62.4053 135.521 63.1591 121.283 77.2537 98.7254C101.993 60.1057 104.795 40.6126 93.0557 9.10794C82.1688 37.4799 69.2546 59.614 31.0867 112.924L28.1299 95.1407Z" fill="#000080" stroke="#000080"/>
</svg>
